<svg xmlns="http://www.w3.org/2000/svg" viewBox="0 0 350 739"><defs><style>.cls-1{fill:#e88023;}.cls-10,.cls-11,.cls-12,.cls-13,.cls-15,.cls-2,.cls-4,.cls-6,.cls-8,.cls-9{fill:none;stroke-miterlimit:10;}.cls-12,.cls-2{stroke:#e88023;}.cls-2,.cls-4,.cls-6,.cls-8,.cls-9{stroke-width:0.75px;}.cls-3{fill:#4d20ef;}.cls-10,.cls-4{stroke:#4d20ef;}.cls-5{fill:#eadc36;}.cls-11,.cls-6{stroke:#eadc36;}.cls-7{fill:#c60995;}.cls-13,.cls-8{stroke:#c60995;}.cls-9{stroke:#000;}.cls-14{fill:#fff;}.cls-15{stroke:#fff;}</style></defs><title>Artboard 8</title><g id="Black_Top" data-name="Black Top"><rect x="-1224" y="-221" width="2736" height="1824"/><path class="cls-1" d="M212.38,315.27H149.66c-.16-9-.24-14.51-.24-16.47q0-30.49,10.08-50.18t40.34-44.27q30.24-24.58,36.15-32.21a43.14,43.14,0,0,0,9.1-26.57q0-20.16-16.11-34.55T185.57,96.63q-26.32,0-44,15T117.2,157.38l-63.45-7.87q2.7-44,37.5-74.77T182.62,44q59.52,0,94.69,31.11t35.17,72.43q0,22.88-12.91,43.29t-55.22,55.58q-21.89,18.21-27.18,29.27T212.38,315.27Zm-62.72,93V339.13h69.11v69.11Z"/><path class="cls-2" d="M212.38,315.27H149.66c-.16-9-.24-14.51-.24-16.47q0-30.49,10.08-50.18t40.34-44.27q30.24-24.58,36.15-32.21a43.14,43.14,0,0,0,9.1-26.57q0-20.16-16.11-34.55T185.57,96.63q-26.32,0-44,15T117.2,157.38l-63.45-7.87q2.7-44,37.5-74.77T182.62,44q59.52,0,94.69,31.11t35.17,72.43q0,22.88-12.91,43.29t-55.22,55.58q-21.89,18.21-27.18,29.27T212.38,315.27Zm-62.72,93V339.13h69.11v69.11Z"/><path class="cls-1" d="M209.38,312.27H146.66c-.16-9-.24-14.51-.24-16.47q0-30.49,10.08-50.18t40.34-44.27q30.24-24.58,36.15-32.21a43.14,43.14,0,0,0,9.1-26.57q0-20.16-16.11-34.55T182.57,93.63q-26.32,0-44,15T114.2,154.38l-63.45-7.87q2.7-44,37.5-74.77T179.62,41q59.52,0,94.69,31.11t35.17,72.43q0,22.88-12.91,43.29t-55.22,55.58q-21.89,18.21-27.18,29.27T209.38,312.27Zm-62.72,93V336.13h69.11v69.11Z"/><path class="cls-2" d="M209.38,312.27H146.66c-.16-9-.24-14.51-.24-16.47q0-30.49,10.08-50.18t40.34-44.27q30.24-24.58,36.15-32.21a43.14,43.14,0,0,0,9.1-26.57q0-20.16-16.11-34.55T182.57,93.63q-26.32,0-44,15T114.2,154.38l-63.45-7.87q2.7-44,37.5-74.77T179.62,41q59.52,0,94.69,31.11t35.17,72.43q0,22.88-12.91,43.29t-55.22,55.58q-21.89,18.21-27.18,29.27T209.38,312.27Zm-62.72,93V336.13h69.11v69.11Z"/><path class="cls-1" d="M209.38,313.27H146.66c-.16-9-.24-14.51-.24-16.47q0-30.49,10.08-50.18t40.34-44.27q30.24-24.58,36.15-32.21a43.14,43.14,0,0,0,9.1-26.57q0-20.16-16.11-34.55T182.57,94.63q-26.32,0-44,15T114.2,155.38l-63.45-7.87q2.7-44,37.5-74.77T179.62,42q59.52,0,94.69,31.11t35.17,72.43q0,22.88-12.91,43.29t-55.22,55.58q-21.89,18.21-27.18,29.27T209.38,313.27Zm-62.72,93V337.13h69.11v69.11Z"/><path class="cls-2" d="M209.38,313.27H146.66c-.16-9-.24-14.51-.24-16.47q0-30.49,10.08-50.18t40.34-44.27q30.24-24.58,36.15-32.21a43.14,43.14,0,0,0,9.1-26.57q0-20.16-16.11-34.55T182.57,94.63q-26.32,0-44,15T114.2,155.38l-63.45-7.87q2.7-44,37.5-74.77T179.62,42q59.52,0,94.69,31.11t35.17,72.43q0,22.88-12.91,43.29t-55.22,55.58q-21.89,18.21-27.18,29.27T209.38,313.27Zm-62.72,93V337.13h69.11v69.11Z"/><path class="cls-1" d="M206.38,310.27H143.66c-.16-9-.24-14.51-.24-16.47q0-30.49,10.08-50.18t40.34-44.27q30.24-24.58,36.15-32.21a43.14,43.14,0,0,0,9.1-26.57q0-20.16-16.11-34.55T179.57,91.63q-26.32,0-44,15T111.2,152.38l-63.45-7.87q2.7-44,37.5-74.77T176.62,39q59.52,0,94.69,31.11t35.17,72.43q0,22.88-12.91,43.29t-55.22,55.58q-21.89,18.21-27.18,29.27T206.38,310.27Zm-62.72,93V334.13h69.11v69.11Z"/><path class="cls-2" d="M206.38,310.27H143.66c-.16-9-.24-14.51-.24-16.47q0-30.49,10.08-50.18t40.34-44.27q30.24-24.58,36.15-32.21a43.14,43.14,0,0,0,9.1-26.57q0-20.16-16.11-34.55T179.57,91.63q-26.32,0-44,15T111.2,152.38l-63.45-7.87q2.7-44,37.5-74.77T176.62,39q59.52,0,94.69,31.11t35.17,72.43q0,22.88-12.91,43.29t-55.22,55.58q-21.89,18.21-27.18,29.27T206.38,310.27Zm-62.72,93V334.13h69.11v69.11Z"/><path class="cls-1" d="M209.38,312.27H146.66c-.16-9-.24-14.51-.24-16.47q0-30.49,10.08-50.18t40.34-44.27q30.24-24.58,36.15-32.21a43.14,43.14,0,0,0,9.1-26.57q0-20.16-16.11-34.55T182.57,93.63q-26.32,0-44,15T114.2,154.38l-63.45-7.87q2.7-44,37.5-74.77T179.62,41q59.52,0,94.69,31.11t35.17,72.43q0,22.88-12.91,43.29t-55.22,55.58q-21.89,18.21-27.18,29.27T209.38,312.27Zm-62.72,93V336.13h69.11v69.11Z"/><path class="cls-2" d="M209.38,312.27H146.66c-.16-9-.24-14.51-.24-16.47q0-30.49,10.08-50.18t40.34-44.27q30.24-24.58,36.15-32.21a43.14,43.14,0,0,0,9.1-26.57q0-20.16-16.11-34.55T182.57,93.63q-26.32,0-44,15T114.2,154.38l-63.45-7.87q2.7-44,37.5-74.77T179.62,41q59.52,0,94.69,31.11t35.17,72.43q0,22.88-12.91,43.29t-55.22,55.58q-21.89,18.21-27.18,29.27T209.38,312.27Zm-62.72,93V336.13h69.11v69.11Z"/><path class="cls-1" d="M206.38,309.27H143.66c-.16-9-.24-14.51-.24-16.47q0-30.49,10.08-50.18t40.34-44.27q30.24-24.58,36.15-32.21a43.14,43.14,0,0,0,9.1-26.57q0-20.16-16.11-34.55T179.57,90.63q-26.32,0-44,15T111.2,151.38l-63.45-7.87q2.7-44,37.5-74.77T176.62,38q59.52,0,94.69,31.11t35.17,72.43q0,22.88-12.91,43.29t-55.22,55.58q-21.89,18.21-27.18,29.27T206.38,309.27Zm-62.72,93V333.13h69.11v69.11Z"/><path class="cls-2" d="M206.38,309.27H143.66c-.16-9-.24-14.51-.24-16.47q0-30.49,10.08-50.18t40.34-44.27q30.24-24.58,36.15-32.21a43.14,43.14,0,0,0,9.1-26.57q0-20.16-16.11-34.55T179.57,90.63q-26.32,0-44,15T111.2,151.38l-63.45-7.87q2.7-44,37.5-74.77T176.62,38q59.52,0,94.69,31.11t35.17,72.43q0,22.88-12.91,43.29t-55.22,55.58q-21.89,18.21-27.18,29.27T206.38,309.27Zm-62.72,93V333.13h69.11v69.11Z"/><path class="cls-1" d="M206.38,310.27H143.66c-.16-9-.24-14.51-.24-16.47q0-30.49,10.08-50.18t40.34-44.27q30.24-24.58,36.15-32.21a43.14,43.14,0,0,0,9.1-26.57q0-20.16-16.11-34.55T179.57,91.63q-26.32,0-44,15T111.2,152.38l-63.45-7.87q2.7-44,37.5-74.77T176.62,39q59.52,0,94.69,31.11t35.17,72.43q0,22.88-12.91,43.29t-55.22,55.58q-21.89,18.21-27.18,29.27T206.38,310.27Zm-62.72,93V334.13h69.11v69.11Z"/><path class="cls-2" d="M206.38,310.27H143.66c-.16-9-.24-14.51-.24-16.47q0-30.49,10.08-50.18t40.34-44.27q30.24-24.58,36.15-32.21a43.14,43.14,0,0,0,9.1-26.57q0-20.16-16.11-34.55T179.57,91.63q-26.32,0-44,15T111.2,152.38l-63.45-7.87q2.7-44,37.5-74.77T176.62,39q59.52,0,94.69,31.11t35.17,72.43q0,22.88-12.91,43.29t-55.22,55.58q-21.89,18.21-27.18,29.27T206.38,310.27Zm-62.72,93V334.13h69.11v69.11Z"/><path class="cls-1" d="M203.38,307.27H140.66c-.16-9-.24-14.51-.24-16.47q0-30.49,10.08-50.18t40.34-44.27q30.24-24.58,36.15-32.21a43.14,43.14,0,0,0,9.1-26.57q0-20.16-16.11-34.55T176.57,88.63q-26.32,0-44,15T108.2,149.38l-63.45-7.87q2.7-44,37.5-74.77T173.62,36q59.52,0,94.69,31.11t35.17,72.43q0,22.88-12.91,43.29t-55.22,55.58q-21.89,18.21-27.18,29.27T203.38,307.27Zm-62.72,93V331.13h69.11v69.11Z"/><path class="cls-2" d="M203.38,307.27H140.66c-.16-9-.24-14.51-.24-16.47q0-30.49,10.08-50.18t40.34-44.27q30.24-24.58,36.15-32.21a43.14,43.14,0,0,0,9.1-26.57q0-20.16-16.11-34.55T176.57,88.63q-26.32,0-44,15T108.2,149.38l-63.45-7.87q2.7-44,37.5-74.77T173.62,36q59.52,0,94.69,31.11t35.17,72.43q0,22.88-12.91,43.29t-55.22,55.58q-21.89,18.21-27.18,29.27T203.38,307.27Zm-62.72,93V331.13h69.11v69.11Z"/><path class="cls-3" d="M211.38,314.27H148.66c-.16-9-.24-14.51-.24-16.47q0-30.49,10.08-50.18t40.34-44.27q30.24-24.58,36.15-32.21a43.14,43.14,0,0,0,9.1-26.57q0-20.16-16.11-34.55T184.57,95.63q-26.32,0-44,15T116.2,156.38l-63.45-7.87q2.7-44,37.5-74.77T181.62,43q59.52,0,94.69,31.11t35.17,72.43q0,22.88-12.91,43.29t-55.22,55.58q-21.89,18.21-27.18,29.27T211.38,314.27Zm-62.72,93V338.13h69.11v69.11Z"/><path class="cls-4" d="M211.38,314.27H148.66c-.16-9-.24-14.51-.24-16.47q0-30.49,10.08-50.18t40.34-44.27q30.24-24.58,36.15-32.21a43.14,43.14,0,0,0,9.1-26.57q0-20.16-16.11-34.55T184.57,95.63q-26.32,0-44,15T116.2,156.38l-63.45-7.87q2.7-44,37.5-74.77T181.62,43q59.52,0,94.69,31.11t35.17,72.43q0,22.88-12.91,43.29t-55.22,55.58q-21.89,18.21-27.18,29.27T211.38,314.27Zm-62.72,93V338.13h69.11v69.11Z"/><path class="cls-3" d="M208.38,311.27H145.66c-.16-9-.24-14.51-.24-16.47q0-30.49,10.08-50.18t40.34-44.27q30.24-24.58,36.15-32.21a43.14,43.14,0,0,0,9.1-26.57q0-20.16-16.11-34.55T181.57,92.63q-26.32,0-44,15T113.2,153.38l-63.45-7.87q2.7-44,37.5-74.77T178.62,40q59.52,0,94.69,31.11t35.17,72.43q0,22.88-12.91,43.29t-55.22,55.58q-21.89,18.21-27.18,29.27T208.38,311.27Zm-62.72,93V335.13h69.11v69.11Z"/><path class="cls-4" d="M208.38,311.27H145.66c-.16-9-.24-14.51-.24-16.47q0-30.49,10.08-50.18t40.34-44.27q30.24-24.58,36.15-32.21a43.14,43.14,0,0,0,9.1-26.57q0-20.16-16.11-34.55T181.57,92.63q-26.32,0-44,15T113.2,153.38l-63.45-7.87q2.7-44,37.5-74.77T178.62,40q59.52,0,94.69,31.11t35.17,72.43q0,22.88-12.91,43.29t-55.22,55.58q-21.89,18.21-27.18,29.27T208.38,311.27Zm-62.72,93V335.13h69.11v69.11Z"/><path class="cls-3" d="M208.38,312.27H145.66c-.16-9-.24-14.51-.24-16.47q0-30.49,10.08-50.18t40.34-44.27q30.24-24.58,36.15-32.21a43.14,43.14,0,0,0,9.1-26.57q0-20.16-16.11-34.55T181.57,93.63q-26.32,0-44,15T113.2,154.38l-63.45-7.87q2.7-44,37.5-74.77T178.62,41q59.52,0,94.69,31.11t35.17,72.43q0,22.88-12.91,43.29t-55.22,55.58q-21.89,18.21-27.18,29.27T208.38,312.27Zm-62.72,93V336.13h69.11v69.11Z"/><path class="cls-4" d="M208.38,312.27H145.66c-.16-9-.24-14.51-.24-16.47q0-30.49,10.08-50.18t40.34-44.27q30.24-24.58,36.15-32.21a43.14,43.14,0,0,0,9.1-26.57q0-20.16-16.11-34.55T181.57,93.63q-26.32,0-44,15T113.2,154.38l-63.45-7.87q2.7-44,37.5-74.77T178.62,41q59.52,0,94.69,31.11t35.17,72.43q0,22.88-12.91,43.29t-55.22,55.58q-21.89,18.21-27.18,29.27T208.38,312.27Zm-62.72,93V336.13h69.11v69.11Z"/><path class="cls-3" d="M205.38,309.27H142.66c-.16-9-.24-14.51-.24-16.47q0-30.49,10.08-50.18t40.34-44.27q30.24-24.58,36.15-32.21a43.14,43.14,0,0,0,9.1-26.57q0-20.16-16.11-34.55T178.57,90.63q-26.32,0-44,15T110.2,151.38l-63.45-7.87q2.7-44,37.5-74.77T175.62,38q59.52,0,94.69,31.11t35.17,72.43q0,22.88-12.91,43.29t-55.22,55.58q-21.89,18.21-27.18,29.27T205.38,309.27Zm-62.72,93V333.13h69.11v69.11Z"/><path class="cls-4" d="M205.38,309.27H142.66c-.16-9-.24-14.51-.24-16.47q0-30.49,10.08-50.18t40.34-44.27q30.24-24.58,36.15-32.21a43.14,43.14,0,0,0,9.1-26.57q0-20.16-16.11-34.55T178.57,90.63q-26.32,0-44,15T110.2,151.38l-63.45-7.87q2.7-44,37.5-74.77T175.62,38q59.52,0,94.69,31.11t35.17,72.43q0,22.88-12.91,43.29t-55.22,55.58q-21.89,18.21-27.18,29.27T205.38,309.27Zm-62.72,93V333.13h69.11v69.11Z"/><path class="cls-5" d="M208.38,311.27H145.66c-.16-9-.24-14.51-.24-16.47q0-30.49,10.08-50.18t40.34-44.27q30.24-24.58,36.15-32.21a43.14,43.14,0,0,0,9.1-26.57q0-20.16-16.11-34.55T181.57,92.63q-26.32,0-44,15T113.2,153.38l-63.45-7.87q2.7-44,37.5-74.77T178.62,40q59.52,0,94.69,31.11t35.17,72.43q0,22.88-12.91,43.29t-55.22,55.58q-21.89,18.21-27.18,29.27T208.38,311.27Zm-62.72,93V335.13h69.11v69.11Z"/><path class="cls-6" d="M208.38,311.27H145.66c-.16-9-.24-14.51-.24-16.47q0-30.49,10.08-50.18t40.34-44.27q30.24-24.58,36.15-32.21a43.14,43.14,0,0,0,9.1-26.57q0-20.16-16.11-34.55T181.57,92.63q-26.32,0-44,15T113.2,153.38l-63.45-7.87q2.7-44,37.5-74.77T178.62,40q59.52,0,94.69,31.11t35.17,72.43q0,22.88-12.91,43.29t-55.22,55.58q-21.89,18.21-27.18,29.27T208.38,311.27Zm-62.72,93V335.13h69.11v69.11Z"/><path class="cls-5" d="M205.38,308.27H142.66c-.16-9-.24-14.51-.24-16.47q0-30.49,10.08-50.18t40.34-44.27q30.24-24.58,36.15-32.21a43.14,43.14,0,0,0,9.1-26.57q0-20.16-16.11-34.55T178.57,89.63q-26.32,0-44,15T110.2,150.38l-63.45-7.87q2.7-44,37.5-74.77T175.62,37q59.52,0,94.69,31.11t35.17,72.43q0,22.88-12.91,43.29t-55.22,55.58q-21.89,18.21-27.18,29.27T205.38,308.27Zm-62.72,93V332.13h69.11v69.11Z"/><path class="cls-6" d="M205.38,308.27H142.66c-.16-9-.24-14.51-.24-16.47q0-30.49,10.08-50.18t40.34-44.27q30.24-24.58,36.15-32.21a43.14,43.14,0,0,0,9.1-26.57q0-20.16-16.11-34.55T178.57,89.63q-26.32,0-44,15T110.2,150.38l-63.45-7.87q2.7-44,37.5-74.77T175.62,37q59.52,0,94.69,31.11t35.17,72.43q0,22.88-12.91,43.29t-55.22,55.58q-21.89,18.21-27.18,29.27T205.38,308.27Zm-62.72,93V332.13h69.11v69.11Z"/><path class="cls-7" d="M205.38,309.27H142.66c-.16-9-.24-14.51-.24-16.47q0-30.49,10.08-50.18t40.34-44.27q30.24-24.58,36.15-32.21a43.14,43.14,0,0,0,9.1-26.57q0-20.16-16.11-34.55T178.57,90.63q-26.32,0-44,15T110.2,151.38l-63.45-7.87q2.7-44,37.5-74.77T175.62,38q59.52,0,94.69,31.11t35.17,72.43q0,22.88-12.91,43.29t-55.22,55.58q-21.89,18.21-27.18,29.27T205.38,309.27Zm-62.72,93V333.13h69.11v69.11Z"/><path class="cls-8" d="M205.38,309.27H142.66c-.16-9-.24-14.51-.24-16.47q0-30.49,10.08-50.18t40.34-44.27q30.24-24.58,36.15-32.21a43.14,43.14,0,0,0,9.1-26.57q0-20.16-16.11-34.55T178.57,90.63q-26.32,0-44,15T110.2,151.38l-63.45-7.87q2.7-44,37.5-74.77T175.62,38q59.52,0,94.69,31.11t35.17,72.43q0,22.88-12.91,43.29t-55.22,55.58q-21.89,18.21-27.18,29.27T205.38,309.27Zm-62.72,93V333.13h69.11v69.11Z"/><path d="M202.38,306.27H139.66c-.16-9-.24-14.51-.24-16.47q0-30.49,10.08-50.18t40.34-44.27q30.24-24.58,36.15-32.21a43.14,43.14,0,0,0,9.1-26.57q0-20.16-16.11-34.55T175.57,87.63q-26.32,0-44,15T107.2,148.38l-63.45-7.87q2.7-44,37.5-74.77T172.62,35q59.52,0,94.69,31.11t35.17,72.43q0,22.88-12.91,43.29t-55.22,55.58q-21.89,18.21-27.18,29.27T202.38,306.27Zm-62.72,93V330.13h69.11v69.11Z"/><path class="cls-9" d="M202.38,306.27H139.66c-.16-9-.24-14.51-.24-16.47q0-30.49,10.08-50.18t40.34-44.27q30.24-24.58,36.15-32.21a43.14,43.14,0,0,0,9.1-26.57q0-20.16-16.11-34.55T175.57,87.63q-26.32,0-44,15T107.2,148.38l-63.45-7.87q2.7-44,37.5-74.77T172.62,35q59.52,0,94.69,31.11t35.17,72.43q0,22.88-12.91,43.29t-55.22,55.58q-21.89,18.21-27.18,29.27T202.38,306.27Zm-62.72,93V330.13h69.11v69.11Z"/><path class="cls-3" d="M154.85,437.09h62.72q.24,13.51.24,16.48,0,30.48-10.09,50.17T167.39,548q-30.25,24.6-36.16,32.22a43.11,43.11,0,0,0-9.1,26.56q0,20.16,16.11,34.56t43.4,14.39q26.33,0,44-15T250,595l63.45,7.87q-2.7,44-37.51,74.76t-91.37,30.74q-59.52,0-94.68-31.12T54.74,604.82q0-22.87,12.92-43.28T122.87,506q21.9-18.21,27.18-29.27T154.85,437.09Zm62.72-93v69.11H148.46V344.13Z"/><path class="cls-10" d="M154.85,437.09h62.72q.24,13.51.24,16.48,0,30.48-10.09,50.17T167.39,548q-30.25,24.6-36.16,32.22a43.11,43.11,0,0,0-9.1,26.56q0,20.16,16.11,34.56t43.4,14.39q26.33,0,44-15T250,595l63.45,7.87q-2.7,44-37.51,74.76t-91.37,30.74q-59.52,0-94.68-31.12T54.74,604.82q0-22.87,12.92-43.28T122.87,506q21.9-18.21,27.18-29.27T154.85,437.09Zm62.72-93v69.11H148.46V344.13Z"/><path class="cls-3" d="M151.85,434.09h62.72q.24,13.51.24,16.48,0,30.48-10.09,50.17T164.39,545q-30.25,24.6-36.16,32.22a43.11,43.11,0,0,0-9.1,26.56q0,20.16,16.11,34.56t43.4,14.39q26.33,0,44-15T247,592l63.45,7.87q-2.7,44-37.51,74.76t-91.37,30.74q-59.52,0-94.68-31.12T51.74,601.82q0-22.87,12.92-43.28T119.87,503q21.9-18.21,27.18-29.27T151.85,434.09Zm62.72-93v69.11H145.46V341.13Z"/><path class="cls-10" d="M151.85,434.09h62.72q.24,13.51.24,16.48,0,30.48-10.09,50.17T164.39,545q-30.25,24.6-36.16,32.22a43.11,43.11,0,0,0-9.1,26.56q0,20.16,16.11,34.56t43.4,14.39q26.33,0,44-15T247,592l63.45,7.87q-2.7,44-37.51,74.76t-91.37,30.74q-59.52,0-94.68-31.12T51.74,601.82q0-22.87,12.92-43.28T119.87,503q21.9-18.21,27.18-29.27T151.85,434.09Zm62.72-93v69.11H145.46V341.13Z"/><path class="cls-3" d="M153.85,436.09h62.72q.24,13.51.24,16.48,0,30.48-10.09,50.17T166.39,547q-30.25,24.6-36.16,32.22a43.11,43.11,0,0,0-9.1,26.56q0,20.16,16.11,34.56t43.4,14.39q26.33,0,44-15T249,594l63.45,7.87q-2.7,44-37.51,74.76t-91.37,30.74q-59.52,0-94.68-31.12T53.74,603.82q0-22.87,12.92-43.28T121.87,505q21.9-18.21,27.18-29.27T153.85,436.09Zm62.72-93v69.11H147.46V343.13Z"/><path class="cls-10" d="M153.85,436.09h62.72q.24,13.51.24,16.48,0,30.48-10.09,50.17T166.39,547q-30.25,24.6-36.16,32.22a43.11,43.11,0,0,0-9.1,26.56q0,20.16,16.11,34.56t43.4,14.39q26.33,0,44-15T249,594l63.45,7.87q-2.7,44-37.51,74.76t-91.37,30.74q-59.52,0-94.68-31.12T53.74,603.82q0-22.87,12.92-43.28T121.87,505q21.9-18.21,27.18-29.27T153.85,436.09Zm62.72-93v69.11H147.46V343.13Z"/><path class="cls-3" d="M150.85,433.09h62.72q.24,13.51.24,16.48,0,30.48-10.09,50.17T163.39,544q-30.25,24.6-36.16,32.22a43.11,43.11,0,0,0-9.1,26.56q0,20.16,16.11,34.56t43.4,14.39q26.33,0,44-15T246,591l63.45,7.87q-2.7,44-37.51,74.76t-91.37,30.74q-59.52,0-94.68-31.12T50.74,600.82q0-22.87,12.92-43.28T118.87,502q21.9-18.21,27.18-29.27T150.85,433.09Zm62.72-93v69.11H144.46V340.13Z"/><path class="cls-10" d="M150.85,433.09h62.72q.24,13.51.24,16.48,0,30.48-10.09,50.17T163.39,544q-30.25,24.6-36.16,32.22a43.11,43.11,0,0,0-9.1,26.56q0,20.16,16.11,34.56t43.4,14.39q26.33,0,44-15T246,591l63.45,7.87q-2.7,44-37.51,74.76t-91.37,30.74q-59.52,0-94.68-31.12T50.74,600.82q0-22.87,12.92-43.28T118.87,502q21.9-18.21,27.18-29.27T150.85,433.09Zm62.72-93v69.11H144.46V340.13Z"/><path class="cls-3" d="M151.85,435.09h62.72q.24,13.51.24,16.48,0,30.48-10.09,50.17T164.39,546q-30.25,24.6-36.16,32.22a43.11,43.11,0,0,0-9.1,26.56q0,20.16,16.11,34.56t43.4,14.39q26.33,0,44-15T247,593l63.45,7.87q-2.7,44-37.51,74.76t-91.37,30.74q-59.52,0-94.68-31.12T51.74,602.82q0-22.87,12.92-43.28T119.87,504q21.9-18.21,27.18-29.27T151.85,435.09Zm62.72-93v69.11H145.46V342.13Z"/><path class="cls-10" d="M151.85,435.09h62.72q.24,13.51.24,16.48,0,30.48-10.09,50.17T164.39,546q-30.25,24.6-36.16,32.22a43.11,43.11,0,0,0-9.1,26.56q0,20.16,16.11,34.56t43.4,14.39q26.33,0,44-15T247,593l63.45,7.87q-2.7,44-37.51,74.76t-91.37,30.74q-59.52,0-94.68-31.12T51.74,602.82q0-22.87,12.92-43.28T119.87,504q21.9-18.21,27.18-29.27T151.85,435.09Zm62.72-93v69.11H145.46V342.13Z"/><path class="cls-3" d="M148.85,432.09h62.72q.24,13.51.24,16.48,0,30.48-10.09,50.17T161.39,543q-30.25,24.6-36.16,32.22a43.11,43.11,0,0,0-9.1,26.56q0,20.16,16.11,34.56t43.4,14.39q26.33,0,44-15T244,590l63.45,7.87q-2.7,44-37.51,74.76t-91.37,30.74q-59.52,0-94.68-31.12T48.74,599.82q0-22.87,12.92-43.28T116.87,501q21.9-18.21,27.18-29.27T148.85,432.09Zm62.72-93v69.11H142.46V339.13Z"/><path class="cls-10" d="M148.85,432.09h62.72q.24,13.51.24,16.48,0,30.48-10.09,50.17T161.39,543q-30.25,24.6-36.16,32.22a43.11,43.11,0,0,0-9.1,26.56q0,20.16,16.11,34.56t43.4,14.39q26.33,0,44-15T244,590l63.45,7.87q-2.7,44-37.51,74.76t-91.37,30.74q-59.52,0-94.68-31.12T48.74,599.82q0-22.87,12.92-43.28T116.87,501q21.9-18.21,27.18-29.27T148.85,432.09Zm62.72-93v69.11H142.46V339.13Z"/><path class="cls-3" d="M150.85,434.09h62.72q.24,13.51.24,16.48,0,30.48-10.09,50.17T163.39,545q-30.25,24.6-36.16,32.22a43.11,43.11,0,0,0-9.1,26.56q0,20.16,16.11,34.56t43.4,14.39q26.33,0,44-15T246,592l63.45,7.87q-2.7,44-37.51,74.76t-91.37,30.74q-59.52,0-94.68-31.12T50.74,601.82q0-22.87,12.92-43.28T118.87,503q21.9-18.21,27.18-29.27T150.85,434.09Zm62.72-93v69.11H144.46V341.13Z"/><path class="cls-10" d="M150.85,434.09h62.72q.24,13.51.24,16.48,0,30.48-10.09,50.17T163.39,545q-30.25,24.6-36.16,32.22a43.11,43.11,0,0,0-9.1,26.56q0,20.16,16.11,34.56t43.4,14.39q26.33,0,44-15T246,592l63.45,7.87q-2.7,44-37.51,74.76t-91.37,30.74q-59.52,0-94.68-31.12T50.74,601.82q0-22.87,12.92-43.28T118.87,503q21.9-18.21,27.18-29.27T150.85,434.09Zm62.72-93v69.11H144.46V341.13Z"/><path class="cls-3" d="M147.85,431.09h62.72q.24,13.51.24,16.48,0,30.48-10.09,50.17T160.39,542q-30.25,24.6-36.16,32.22a43.11,43.11,0,0,0-9.1,26.56q0,20.16,16.11,34.56t43.4,14.39q26.33,0,44-15T243,589l63.45,7.87q-2.7,44-37.51,74.76t-91.37,30.74q-59.52,0-94.68-31.12T47.74,598.82q0-22.87,12.92-43.28T115.87,500q21.9-18.21,27.18-29.27T147.85,431.09Zm62.72-93v69.11H141.46V338.13Z"/><path class="cls-10" d="M147.85,431.09h62.72q.24,13.51.24,16.48,0,30.48-10.09,50.17T160.39,542q-30.25,24.6-36.16,32.22a43.11,43.11,0,0,0-9.1,26.56q0,20.16,16.11,34.56t43.4,14.39q26.33,0,44-15T243,589l63.45,7.87q-2.7,44-37.51,74.76t-91.37,30.74q-59.52,0-94.68-31.12T47.74,598.82q0-22.87,12.92-43.28T115.87,500q21.9-18.21,27.18-29.27T147.85,431.09Zm62.72-93v69.11H141.46V338.13Z"/><path class="cls-5" d="M150.85,433.09h62.72q.24,13.51.24,16.48,0,30.48-10.09,50.17T163.39,544q-30.25,24.6-36.16,32.22a43.11,43.11,0,0,0-9.1,26.56q0,20.16,16.11,34.56t43.4,14.39q26.33,0,44-15T246,591l63.45,7.87q-2.7,44-37.51,74.76t-91.37,30.74q-59.52,0-94.68-31.12T50.74,600.82q0-22.87,12.92-43.28T118.87,502q21.9-18.21,27.18-29.27T150.85,433.09Zm62.72-93v69.11H144.46V340.13Z"/><path class="cls-11" d="M150.85,433.09h62.72q.24,13.51.24,16.48,0,30.48-10.09,50.17T163.39,544q-30.25,24.6-36.16,32.22a43.11,43.11,0,0,0-9.1,26.56q0,20.16,16.11,34.56t43.4,14.39q26.33,0,44-15T246,591l63.45,7.87q-2.7,44-37.51,74.76t-91.37,30.74q-59.52,0-94.68-31.12T50.74,600.82q0-22.87,12.92-43.28T118.87,502q21.9-18.21,27.18-29.27T150.85,433.09Zm62.72-93v69.11H144.46V340.13Z"/><path class="cls-5" d="M147.85,430.09h62.72q.24,13.51.24,16.48,0,30.48-10.09,50.17T160.39,541q-30.25,24.6-36.16,32.22a43.11,43.11,0,0,0-9.1,26.56q0,20.16,16.11,34.56t43.4,14.39q26.33,0,44-15T243,588l63.45,7.87q-2.7,44-37.51,74.76t-91.37,30.74q-59.52,0-94.68-31.12T47.74,597.82q0-22.87,12.92-43.28T115.87,499q21.9-18.21,27.18-29.27T147.85,430.09Zm62.72-93v69.11H141.46V337.13Z"/><path class="cls-11" d="M147.85,430.09h62.72q.24,13.51.24,16.48,0,30.48-10.09,50.17T160.39,541q-30.25,24.6-36.16,32.22a43.11,43.11,0,0,0-9.1,26.56q0,20.16,16.11,34.56t43.4,14.39q26.33,0,44-15T243,588l63.45,7.87q-2.7,44-37.51,74.76t-91.37,30.74q-59.52,0-94.68-31.12T47.74,597.82q0-22.87,12.92-43.28T115.87,499q21.9-18.21,27.18-29.27T147.85,430.09Zm62.72-93v69.11H141.46V337.13Z"/><path class="cls-5" d="M149.85,432.09h62.72q.24,13.51.24,16.48,0,30.48-10.09,50.17T162.39,543q-30.25,24.6-36.16,32.22a43.11,43.11,0,0,0-9.1,26.56q0,20.16,16.11,34.56t43.4,14.39q26.33,0,44-15T245,590l63.45,7.87q-2.7,44-37.51,74.76t-91.37,30.74q-59.52,0-94.68-31.12T49.74,599.82q0-22.87,12.92-43.28T117.87,501q21.9-18.21,27.18-29.27T149.85,432.09Zm62.72-93v69.11H143.46V339.13Z"/><path class="cls-11" d="M149.85,432.09h62.72q.24,13.51.24,16.48,0,30.48-10.09,50.17T162.39,543q-30.25,24.6-36.16,32.22a43.11,43.11,0,0,0-9.1,26.56q0,20.16,16.11,34.56t43.4,14.39q26.33,0,44-15T245,590l63.45,7.87q-2.7,44-37.51,74.76t-91.37,30.74q-59.52,0-94.68-31.12T49.74,599.82q0-22.87,12.92-43.28T117.87,501q21.9-18.21,27.18-29.27T149.85,432.09Zm62.72-93v69.11H143.46V339.13Z"/><path class="cls-5" d="M146.85,429.09h62.72q.24,13.51.24,16.48,0,30.48-10.09,50.17T159.39,540q-30.25,24.6-36.16,32.22a43.11,43.11,0,0,0-9.1,26.56q0,20.16,16.11,34.56t43.4,14.39q26.33,0,44-15T242,587l63.45,7.87q-2.7,44-37.51,74.76t-91.37,30.74q-59.52,0-94.68-31.12T46.74,596.82q0-22.87,12.92-43.28T114.87,498q21.9-18.21,27.18-29.27T146.85,429.09Zm62.72-93v69.11H140.46V336.13Z"/><path class="cls-11" d="M146.85,429.09h62.72q.24,13.51.24,16.48,0,30.48-10.09,50.17T159.39,540q-30.25,24.6-36.16,32.22a43.11,43.11,0,0,0-9.1,26.56q0,20.16,16.11,34.56t43.4,14.39q26.33,0,44-15T242,587l63.45,7.87q-2.7,44-37.51,74.76t-91.37,30.74q-59.52,0-94.68-31.12T46.74,596.82q0-22.87,12.92-43.28T114.87,498q21.9-18.21,27.18-29.27T146.85,429.09Zm62.72-93v69.11H140.46V336.13Z"/><path class="cls-1" d="M147.85,431.09h62.72q.24,13.51.24,16.48,0,30.48-10.09,50.17T160.39,542q-30.25,24.6-36.16,32.22a43.11,43.11,0,0,0-9.1,26.56q0,20.16,16.11,34.56t43.4,14.39q26.33,0,44-15T243,589l63.45,7.87q-2.7,44-37.51,74.76t-91.37,30.74q-59.52,0-94.68-31.12T47.74,598.82q0-22.87,12.92-43.28T115.87,500q21.9-18.21,27.18-29.27T147.85,431.09Zm62.72-93v69.11H141.46V338.13Z"/><path class="cls-12" d="M147.85,431.09h62.72q.24,13.51.24,16.48,0,30.48-10.09,50.17T160.39,542q-30.25,24.6-36.16,32.22a43.11,43.11,0,0,0-9.1,26.56q0,20.16,16.11,34.56t43.4,14.39q26.33,0,44-15T243,589l63.45,7.87q-2.7,44-37.51,74.76t-91.37,30.74q-59.52,0-94.68-31.12T47.74,598.82q0-22.87,12.92-43.28T115.87,500q21.9-18.21,27.18-29.27T147.85,431.09Zm62.72-93v69.11H141.46V338.13Z"/><path class="cls-1" d="M144.85,428.09h62.72q.24,13.51.24,16.48,0,30.48-10.09,50.17T157.39,539q-30.25,24.6-36.16,32.22a43.11,43.11,0,0,0-9.1,26.56q0,20.16,16.11,34.56t43.4,14.39q26.33,0,44-15T240,586l63.45,7.87q-2.7,44-37.51,74.76t-91.37,30.74q-59.52,0-94.68-31.12T44.74,595.82q0-22.87,12.92-43.28T112.87,497q21.9-18.21,27.18-29.27T144.85,428.09Zm62.72-93v69.11H138.46V335.13Z"/><path class="cls-12" d="M144.85,428.09h62.72q.24,13.51.24,16.48,0,30.48-10.09,50.17T157.39,539q-30.25,24.6-36.16,32.22a43.11,43.11,0,0,0-9.1,26.56q0,20.16,16.11,34.56t43.4,14.39q26.33,0,44-15T240,586l63.45,7.87q-2.7,44-37.51,74.76t-91.37,30.74q-59.52,0-94.68-31.12T44.74,595.82q0-22.87,12.92-43.28T112.87,497q21.9-18.21,27.18-29.27T144.85,428.09Zm62.72-93v69.11H138.46V335.13Z"/><path class="cls-7" d="M146.85,430.09h62.72q.24,13.51.24,16.48,0,30.48-10.09,50.17T159.39,541q-30.25,24.6-36.16,32.22a43.11,43.11,0,0,0-9.1,26.56q0,20.16,16.11,34.56t43.4,14.39q26.33,0,44-15T242,588l63.45,7.87q-2.7,44-37.51,74.76t-91.37,30.74q-59.52,0-94.68-31.12T46.74,597.82q0-22.87,12.92-43.28T114.87,499q21.9-18.21,27.18-29.27T146.85,430.09Zm62.72-93v69.11H140.46V337.13Z"/><path class="cls-13" d="M146.85,430.09h62.72q.24,13.51.24,16.48,0,30.48-10.09,50.17T159.39,541q-30.25,24.6-36.16,32.22a43.11,43.11,0,0,0-9.1,26.56q0,20.16,16.11,34.56t43.4,14.39q26.33,0,44-15T242,588l63.45,7.87q-2.7,44-37.51,74.76t-91.37,30.74q-59.52,0-94.68-31.12T46.74,597.82q0-22.87,12.92-43.28T114.87,499q21.9-18.21,27.18-29.27T146.85,430.09Zm62.72-93v69.11H140.46V337.13Z"/><path class="cls-14" d="M143.85,427.09h62.72q.24,13.51.24,16.48,0,30.48-10.09,50.17T156.39,538q-30.25,24.6-36.16,32.22a43.11,43.11,0,0,0-9.1,26.56q0,20.16,16.11,34.56t43.4,14.39q26.33,0,44-15T239,585l63.45,7.87q-2.7,44-37.51,74.76t-91.37,30.74q-59.52,0-94.68-31.12T43.74,594.82q0-22.87,12.92-43.28T111.87,496q21.9-18.21,27.18-29.27T143.85,427.09Zm62.72-93v69.11H137.46V334.13Z"/><path class="cls-15" d="M143.85,427.09h62.72q.24,13.51.24,16.48,0,30.48-10.09,50.17T156.39,538q-30.25,24.6-36.16,32.22a43.11,43.11,0,0,0-9.1,26.56q0,20.16,16.11,34.56t43.4,14.39q26.33,0,44-15T239,585l63.45,7.87q-2.7,44-37.51,74.76t-91.37,30.74q-59.52,0-94.68-31.12T43.74,594.82q0-22.87,12.92-43.28T111.87,496q21.9-18.21,27.18-29.27T143.85,427.09Zm62.72-93v69.11H137.46V334.13Z"/><path class="cls-7" d="M214.56,333.7,142.5,403l1.38-70.69,70.68,1.39"/><path d="M211.56,330.7,139.5,400l1.38-70.69,70.68,1.39"/><path class="cls-7" d="M214.56,333.7,142.5,403l1.38-70.69,70.68,1.39"/><path d="M211.56,330.7,139.5,400l1.38-70.69,70.68,1.39"/></g></svg>